<svg width="80" height="80" viewBox="0 0 80 80" fill="none" xmlns="http://www.w3.org/2000/svg">
<rect x="0.5" y="0.5" width="79" height="79" rx="39.5" stroke="#33CB98"/>
<path d="M54.9082 24.8262C54.7754 24.7598 54.637 24.721 54.4932 24.71C54.3493 24.6989 54.2109 24.7266 54.0781 24.793L44.25 29.707L34.4219 24.793C34.3112 24.7266 34.1895 24.6934 34.0566 24.6934C33.9238 24.6934 33.791 24.7266 33.6582 24.793L23.4648 29.9062C23.332 29.9727 23.2214 30.0723 23.1328 30.2051C23.0443 30.3379 23 30.4818 23 30.6367V56.1367C23 56.2917 23.0387 56.4355 23.1162 56.5684C23.1937 56.7012 23.2878 56.8008 23.3984 56.8672C23.4648 56.9115 23.5368 56.9447 23.6143 56.9668C23.6917 56.9889 23.7747 57 23.8633 57C23.9297 57 23.9906 56.9945 24.0459 56.9834C24.1012 56.9723 24.1621 56.9447 24.2285 56.9004L34.0566 51.9863L43.8848 56.9004C43.9954 56.9668 44.1172 57 44.25 57C44.3828 57 44.5156 56.9668 44.6484 56.9004L54.8418 51.8203C54.9746 51.7318 55.0853 51.6211 55.1738 51.4883C55.2624 51.3555 55.3066 51.2116 55.3066 51.0566V25.5566C55.3066 25.4017 55.2679 25.2633 55.1904 25.1416C55.113 25.0199 55.0189 24.9147 54.9082 24.8262ZM33.1934 50.5254L24.6934 54.7754V31.168L33.1934 26.918V50.5254ZM34.8867 26.918L43.3867 31.168V54.7754L34.8867 50.5254V26.918ZM53.6133 50.5254L45.1133 54.7754V31.168L53.6133 26.918V50.5254Z" fill="#33CB98"/>
</svg>
